# xmcd CD database file
#
# Track frame offsets:
#	150
#	19777
#	37705
#	51778
#	68219
#	89274
#	102729
#	125128
#	134265
#	155747
#	162874
#	176075
#	188043
#	211157
#	221554
#	232049
#	245749
#	253701
#	269051
#	306158
#	322135
#	329362
#
# Disc length: 4473 seconds
#
# Revision: 0
# Processed by: cddbd v1.5.1PL0 Copyright (c) Steve Scherf et al.
# Submitted via: CDex 1.51
#
DISCID=51117716
DTITLE=Various Artist - Merlin's Arthur [CD 1)
DYEAR=1996
DGENRE=New Age
TTITLE0=Tintagel
TTITLE1=The Myth That Tells The Tale
TTITLE2=Arthur Is Your King
TTITLE3=Lady Of The Lake
TTITLE4=Battle Against The Saxons - The Hag In The Kiln
TTITLE5=Come By The Hills
TTITLE6=Crowning Of Arthur - Queen's Marsh
TTITLE7=Celebrations
TTITLE8=My Queen, My Camelot
TTITLE9=Wedding Feast - Welsh Ground
TTITLE10=Diamonds For The Conquest
TTITLE11=The Knights Encircled Their King
TTITLE12=Morgan's Magical Trance
TTITLE13=Guard Your Secrets Well
TTITLE14=Tis Like A Spell
TTITLE15=A Story Of The Knights
TTITLE16=Journey Of Emotions
TTITLE17=Gareth And Lynette
TTITLE18=Merlin And Vivien
TTITLE19=Tristan And Isolde
TTITLE20=Guinevere
TTITLE21=The Fool's Song
EXTD=YEAR: 1996
EXTT0=
EXTT1=
EXTT2=
EXTT3=
EXTT4=
EXTT5=
EXTT6=
EXTT7=
EXTT8=
EXTT9=
EXTT10=
EXTT11=
EXTT12=
EXTT13=
EXTT14=
EXTT15=
EXTT16=
EXTT17=
EXTT18=
EXTT19=
EXTT20=
EXTT21=
PLAYORDER=
